<svg width="888" height="658" viewBox="0 0 888 658" fill="none" xmlns="http://www.w3.org/2000/svg">
<path d="M515.871 376.973L534.955 392.363L596.207 383.129L515.871 376.973Z" fill="#798A33"/>
<path d="M403.832 407.445L402.293 420.68L428.456 426.836L403.832 407.445Z" fill="#34381B"/>
<path d="M369.666 429.607L365.357 408.984L375.822 406.522L377.977 418.526L369.666 429.607Z" fill="#677138"/>
<path d="M388.442 427.144L382.286 451.46L369.666 429.607L377.977 418.218L388.442 427.144Z" fill="#34381B"/>
<path d="M358.893 427.144L363.818 448.69L369.666 429.607L365.357 408.984L358.893 427.144Z" fill="#677138"/>
<path d="M406.294 442.842L402.293 420.68L377.977 418.526L406.294 442.842Z" fill="#798A33"/>
<path d="M329.96 427.144L365.665 408.984L358.894 427.144H329.96Z" fill="#798A33"/>
<path d="M402.293 420.68L403.832 407.445L377.977 418.526L402.293 420.68Z" fill="#677138"/>
<path d="M365.665 408.984L377.669 379.128L404.14 407.445L377.977 418.526L375.822 406.522L365.665 408.984Z" fill="#34381B"/>
<path d="M450.618 355.735L401.062 352.349L447.54 386.207L450.618 355.735Z" fill="#677138"/>
<path d="M401.062 352.349L377.669 379.127L404.14 407.445L447.54 386.207L401.062 352.349Z" fill="#798A33"/>
<path d="M510.639 484.087L498.019 455.462L448.771 511.481L510.639 484.087Z" fill="#534E27"/>
<path d="M504.79 440.995L580.817 451.768L498.019 455.77L504.79 440.995Z" fill="#34381B"/>
<path d="M579.894 451.768L510.639 484.087L497.711 455.77L579.894 451.768Z" fill="#798A33"/>
<path d="M595.899 432.377L608.827 445.304L648.225 436.378L633.451 422.527L598.977 417.602L595.899 432.377Z" fill="#677138"/>
<path d="M595.899 432.377L566.351 430.53L575.585 413.909L599.285 417.91L595.899 432.377Z" fill="#798A33"/>
<path d="M596.207 432.377L609.135 445.304L580.202 451.768L525.721 444.073L536.186 428.683L596.207 432.377Z" fill="#677138"/>
<path d="M609.135 403.751L599.285 417.602L633.451 422.527L631.296 403.751H609.135Z" fill="#34381B"/>
<path d="M674.388 394.517L696.55 412.062L712.248 389.9L686.393 383.744L674.388 394.517Z" fill="#677138"/>
<path d="M644.839 388.361L631.296 403.751L633.451 422.835L648.225 436.686L675.004 394.517L644.839 388.361Z" fill="#798A33"/>
<path d="M696.55 411.754L703.014 424.374L647.917 436.686L674.696 394.517L696.55 411.754Z" fill="#677138"/>
<path d="M696.242 411.754L711.94 389.9L731.639 417.602L702.706 424.374L696.242 411.754Z" fill="#798A33"/>
<path d="M725.483 428.683L579.894 451.768L731.947 417.602L725.483 428.683Z" fill="#34381B"/>
<path d="M815.361 397.595L847.68 412.37L762.111 423.143L770.422 408.368L815.361 397.595Z" fill="#798A33"/>
<path d="M760.572 371.125L750.723 380.974L770.114 408.676L815.668 397.903L777.193 376.357L760.572 371.125Z" fill="#677138"/>
<path d="M725.175 428.683L762.727 423.143L770.422 408.676L751.031 381.282L723.636 376.357L711.94 389.9L731.639 417.602L725.175 428.683Z" fill="#534E27"/>
<path d="M776.886 376.357L790.121 358.813L857.222 369.278L815.669 397.903L776.886 376.357Z" fill="#34381B"/>
<path d="M789.813 358.813L765.805 348.963L847.372 303.409L789.813 358.813Z" fill="#677138"/>
<path d="M847.064 303.409L789.813 358.813L857.529 369.278L847.064 303.409Z" fill="#677138"/>
<path d="M815.053 397.903L856.606 369.278L877.229 381.59L847.68 412.37L815.053 397.903Z" fill="#534E27"/>
<path d="M880.306 304.024L862.762 292.328L846.756 304.024L857.221 368.97L880.306 326.186V304.024Z" fill="#798A33"/>
<path d="M863.685 279.092L839.677 274.168L846.141 304.64L862.454 292.636L863.685 279.092Z" fill="#34381B"/>
<path d="M847.064 303.716L765.805 349.271L776.886 283.094L847.064 303.716Z" fill="#798A33"/>
<path d="M836.291 259.085L807.973 258.47L776.578 283.094L846.448 304.024L836.291 259.085Z" fill="#534E27"/>
<path d="M807.973 258.778L776.578 283.402L717.788 264.01L796.893 244.003L807.973 258.778Z" fill="#677138"/>
<path d="M776.886 283.094L765.805 349.271L660.229 300.946L718.404 264.01L776.886 283.094Z" fill="#34381B"/>
<path d="M739.642 237.232L712.248 243.696L717.788 264.01L762.727 252.622L739.642 237.232Z" fill="#677138"/>
<path d="M511.87 404.983L523.566 383.129L535.263 392.671L511.87 404.983Z" fill="#534E27"/>
<path d="M766.42 349.309L632.22 356.042L660.537 301.254L766.42 349.309Z" fill="#677138"/>
<path d="M529.415 414.524L535.571 392.055L596.207 382.821L529.415 414.524Z" fill="#34381B"/>
<path d="M557.425 368.97L503.56 377.281L596.823 383.129L557.425 368.97Z" fill="#677138"/>
<path d="M640.53 374.203L632.22 356.042L557.117 368.97L596.515 383.129L640.53 374.203Z" fill="#798A33"/>
<path d="M557.117 369.278L632.528 356.042L561.118 351.118L557.117 369.278Z" fill="#677138"/>
<path d="M632.528 356.043L561.118 351.118L522.027 287.711L632.528 356.043Z" fill="#534E27"/>
<path d="M660.23 300.946L521.72 288.326L561.118 240.002L634.067 251.083L660.23 300.946Z" fill="#677138"/>
<path d="M522.027 288.019L632.528 356.043L660.845 300.946L522.027 288.019Z" fill="#798A33"/>
<path d="M633.759 251.39L660.229 301.562L718.096 264.318L712.248 243.695L691.933 229.229L661.461 232.922L633.759 251.39Z" fill="#798A33"/>
<path d="M634.066 251.083L560.81 240.002L603.594 218.456L634.066 211.684L661.461 232.923L634.066 251.083Z" fill="#534E27"/>
<path d="M562.041 240.31L389.365 265.241L443.23 214.454L562.041 240.31Z" fill="#677138"/>
<path d="M450.618 355.735L522.335 287.711L561.426 351.118L450.618 355.735Z" fill="#34381B"/>
<path d="M522.335 287.711L389.674 265.241L450.618 356.042L522.335 287.711Z" fill="#677138"/>
<path d="M522.027 288.326L561.733 240.31L389.365 265.241L522.027 288.326Z" fill="#798A33"/>
<path d="M561.426 240.618L559.887 214.147L443.23 214.455L561.426 240.618Z" fill="#798A33"/>
<path d="M561.118 240.31L605.133 218.148L578.97 206.144L559.579 213.839L561.118 240.31Z" fill="#34381B"/>
<path d="M343.196 229.229L326.574 243.08L389.366 265.241L360.74 235.385L343.196 229.229Z" fill="#677138"/>
<path d="M450.618 356.042L401.37 352.349L389.365 264.934L450.618 356.042Z" fill="#534E27"/>
<path d="M443.231 214.454L360.432 235.385L389.366 265.241L443.231 214.454Z" fill="#34381B"/>
<path d="M401.37 352.349L389.365 265.241L305.952 322.492L401.37 352.349Z" fill="#798A33"/>
<path d="M296.718 232.615L257.319 268.935L389.366 265.242L296.718 232.615Z" fill="#798A33"/>
<path d="M401.678 352.349L277.326 369.278L257.627 268.627L305.336 322.185L401.678 352.349Z" fill="#677138"/>
<path d="M226.539 352.657L257.627 268.319L277.634 368.97L226.539 352.657Z" fill="#798A33"/>
<path d="M226.54 352.657L194.836 261.548L257.32 268.935L226.54 352.657Z" fill="#34381B"/>
<path d="M262.859 237.539L277.018 250.467L257.319 269.243L226.539 241.849L262.859 237.539Z" fill="#677138"/>
<path d="M389.366 265.241L305.952 322.8L257.627 268.935L389.366 265.241Z" fill="#34381B"/>
<path d="M257.627 269.243L226.847 242.156L194.836 261.856L257.627 269.243Z" fill="#677138"/>
<path d="M38.1656 284.941L54.479 302.485L27.3926 323.108L19.082 302.485L38.1656 284.941Z" fill="#34381B"/>
<path d="M27.3928 323.108L54.4792 302.177L95.1088 348.655L27.3928 323.108Z" fill="#677138"/>
<path d="M4 316.336L9.8482 294.79L19.39 301.87L27.3928 323.108L4 316.336Z" fill="#798A33"/>
<path d="M133.584 347.424L160.67 363.122L125.581 296.329L133.584 347.424Z" fill="#677138"/>
<path d="M84.9512 300.639L94.8008 348.655L133.584 347.424L84.9512 300.639Z" fill="#34381B"/>
<path d="M67.7146 291.097L54.1714 302.485L94.801 348.655L84.9514 300.639L67.7146 291.097Z" fill="#798A33"/>
<path d="M118.809 288.019L109.883 298.792L133.584 347.424L125.581 296.329L118.809 288.019Z" fill="#798A33"/>
<path d="M164.056 281.555L160.67 363.122L125.581 296.329L164.056 281.555Z" fill="#34381B"/>
<path d="M93.2618 286.172L84.9512 300.638L133.584 347.424L109.883 298.792L93.2618 286.172Z" fill="#534E27"/>
<path d="M194.836 261.548L164.056 281.555L125.888 253.545L161.901 239.694L194.836 261.548Z" fill="#677138"/>
<path d="M194.836 261.548L226.539 352.657L164.056 281.555L194.836 261.548Z" fill="#534E27"/>
<path d="M226.539 352.657L160.67 363.122L164.056 281.555L226.539 352.657Z" fill="#798A33"/>
<path d="M95.1087 251.698L89.2605 237.847L114.808 216.609L108.96 246.158L95.1087 251.698Z" fill="#534E27"/>
<path d="M125.889 253.545L120.656 259.393L108.96 246.158L114.808 216.609L125.889 253.545Z" fill="#798A33"/>
<path d="M161.901 239.694V226.459L114.808 216.609L125.889 253.545L161.901 239.694Z" fill="#34381B"/>
<path d="M226.847 242.157L195.144 261.856L161.902 239.694L161.594 226.459L190.835 218.148L226.847 242.157Z" fill="#798A33"/>
<path d="M55.4026 229.229L53.248 212.916L76.0252 199.988L70.177 223.073L55.4026 229.229Z" fill="#798A33"/>
<path d="M114.808 216.609L92.9541 199.68L89.2605 237.847L114.808 216.609Z" fill="#798A33"/>
<path d="M92.9542 199.68L76.0252 199.988L70.177 223.073L92.9542 199.68Z" fill="#677138"/>
<path d="M31.3943 203.374V181.828L52.9403 177.519L53.2481 212.916L40.0127 216.917L31.3943 203.374Z" fill="#534E27"/>
<path d="M52.9399 177.519L76.0249 199.988L53.2477 212.916L52.9399 177.519Z" fill="#34381B"/>
<path d="M89.2606 237.847H75.1018L70.177 223.073L92.9542 199.68L89.2606 237.847Z" fill="#34381B"/>
<path d="M884 352.349L880.306 326.186L856.914 369.586L877.228 381.59L884 352.349Z" fill="#34381B"/>
</svg>
